<svg version="1.1" id="Layer_1" xmlns="http://www.w3.org/2000/svg" xmlns:xlink="http://www.w3.org/1999/xlink" x="0px" y="0px" viewBox="0 0 64 64" style="enable-background:new 0 0 512.001 512.001;" xml:space="preserve" width="64" height="64"><g><g><path d="M55.149 20.362V11.426q0 -0.01 0 -0.02c-0.011 -3.095 -2.531 -5.609 -5.628 -5.609 -3.104 0 -5.629 2.525 -5.629 5.629v2.559c0 0.213 0.013 0.422 0.036 0.629v5.678c-2.521 0.341 -4.471 2.506 -4.471 5.12v16.291a0.939 0.939 0 0 0 0.939 0.939h0.884l-1.041 4.24a0.939 0.939 0 0 0 0.912 1.163h2.777v15.014a0.939 0.939 0 0 0 0.939 0.939h8.943a0.939 0.939 0 0 0 0.939 -0.939V48.046H57.525a0.94 0.94 0 0 0 0.912 -1.163l-1.041 -4.24h0.883a0.939 0.939 0 0 0 0.939 -0.939V25.412c0 -2.473 -1.746 -4.545 -4.071 -5.05M49.52 7.675c1.594 0 2.959 1 3.5 2.406l-5.655 -1.723a3.73 3.73 0 0 1 2.155 -0.683m-3.439 2.256 7.19 2.19v1.864c0 2.068 -1.682 3.75 -3.75 3.75 -1.894 0 -3.463 -1.411 -3.714 -3.237v-0.859c0 -0.089 -0.013 -0.174 -0.036 -0.255v-1.959h0c0 -0.531 0.112 -1.036 0.312 -1.495m-0.276 10.313v-2.035c0.992 0.873 2.292 1.405 3.714 1.405 1.44 0 2.754 -0.544 3.75 -1.436v2.066h-3.933v0zm2.593 31.634v10.243H45.805v-14.075h2.593zm1.878 10.243v-14.075h2.593v14.075zm7.064 -21.357h-2.593V25.655c0 -0.519 -0.42 -0.939 -0.939 -0.939s-0.939 0.42 -0.939 0.939v16.049a0.939 0.939 0 0 0 0.939 0.939H55.462l0.865 3.525h-13.98l0.865 -3.525h1.653a0.939 0.939 0 0 0 0.939 -0.939V25.655c0 -0.519 -0.42 -0.939 -0.939 -0.939s-0.939 0.42 -0.939 0.939v15.11H41.334V25.412c0 -1.814 1.476 -3.29 3.29 -3.29h9.428c1.814 0 3.29 1.476 3.29 3.29z"/></g></g><g><g><path d="M34.519 0h-4.183a0.939 0.939 0 0 0 -0.939 0.939v61.68a0.939 0.939 0 0 0 0.939 0.939h4.183a0.939 0.939 0 0 0 0.939 -0.939V0.939A0.939 0.939 0 0 0 34.519 0m-0.939 61.68h-2.304V1.878h2.304z"/></g></g><g><g><path d="M16.859 5.796H12.831c-1.993 0 -3.615 1.622 -3.615 3.615v5.357c0 2.672 2.174 4.846 4.846 4.846h1.566c2.672 0 4.846 -2.174 4.846 -4.846V9.411c0 -1.993 -1.622 -3.615 -3.615 -3.615m1.736 8.972c0 1.636 -1.331 2.967 -2.967 2.967h-1.566c-1.636 0 -2.967 -1.331 -2.967 -2.967V9.836l7.501 2.285v2.647zm0 -4.611L11.734 8.067a1.727 1.727 0 0 1 1.097 -0.392h4.028c0.957 0 1.736 0.779 1.736 1.736v0.746z"/></g></g><g><g><path d="M19.377 20.244H9.949c-2.85 0 -5.168 2.318 -5.168 5.168v16.291a0.939 0.939 0 0 0 0.939 0.939h3.532v20.418a0.939 0.939 0 0 0 0.939 0.939h8.943a0.939 0.939 0 0 0 0.939 -0.939V42.643h3.532a0.939 0.939 0 0 0 0.939 -0.939v-16.291c0 -2.85 -2.318 -5.168 -5.168 -5.168m-5.653 41.877H11.131V44.785h2.593zm4.471 0h-2.593V44.785h2.593zm4.471 -21.357h-2.593V25.654a0.939 0.939 0 0 0 -0.939 -0.939 0.939 0.939 0 0 0 -0.939 0.939v17.252H11.131V25.654c0 -0.519 -0.42 -0.939 -0.939 -0.939s-0.939 0.42 -0.939 0.939v15.11H6.659V25.412c0 -1.814 1.476 -3.29 3.29 -3.29h9.428c1.814 0 3.29 1.476 3.29 3.29z"/></g></g></svg>