<svg version="1.1" id="Capa_1" xmlns="http://www.w3.org/2000/svg" xmlns:xlink="http://www.w3.org/1999/xlink" x="0px" y="0px" viewBox="0 0 64 64" style="enable-background:new 0 0 52 52;" xml:space="preserve" width="64" height="64"><g><g><path x="12.5" y="25" width="7" height="2" d="M15.385 30.769H24V33.231H15.385V30.769z"/><path d="M54.769 61.538V1.231a1.231 1.231 0 0 0 -1.231 -1.231h-41.846a1.231 1.231 0 0 0 -1.231 1.231v60.308h-6.154v2.462h55.385v-2.462zm-41.846 0V2.462h39.385v59.077z"/><path d="M48.615 4.923h-32a1.231 1.231 0 0 0 -1.231 1.231v7.385a1.231 1.231 0 0 0 1.231 1.231h32a1.231 1.231 0 0 0 1.231 -1.231V6.154a1.231 1.231 0 0 0 -1.231 -1.231m-1.231 7.385h-29.538V7.385h29.538z"/><path d="M48.615 19.692h-32a1.231 1.231 0 0 0 -1.231 1.231v7.385a1.231 1.231 0 0 0 1.231 1.231h32a1.231 1.231 0 0 0 1.231 -1.231v-7.385a1.231 1.231 0 0 0 -1.231 -1.231m-1.231 7.385h-29.538v-4.923h29.538z"/><path d="M48.615 34.462h-32a1.231 1.231 0 0 0 -1.231 1.231v7.385a1.231 1.231 0 0 0 1.231 1.231h32a1.231 1.231 0 0 0 1.231 -1.231v-7.385a1.231 1.231 0 0 0 -1.231 -1.231m-1.231 7.385h-29.538v-4.923h29.538z"/><path d="M48.615 49.231h-32a1.231 1.231 0 0 0 -1.231 1.231v7.385a1.231 1.231 0 0 0 1.231 1.231h32a1.231 1.231 0 0 0 1.231 -1.231v-7.385a1.231 1.231 0 0 0 -1.231 -1.231m-1.231 7.385h-29.538v-4.923h29.538z"/></g></g></svg>