<svg width="64px" height="64px" viewBox="0 0 81.92 81.92" class="icon" version="1.1" xmlns="http://www.w3.org/2000/svg"><path d="M7 15.123h67.557v43.57H7z" fill="#466D77"/><path d="M11.543 19.686h58.471v34.443H11.543z" fill="#E6E6E6"/><path d="m47.896 19.686 -23.618 34.444H14.388L38.005 19.686zm11.313 0 -23.618 34.444h-6.431l23.618 -34.444z" fill="#FFFFFF"/><path d="M56.596 64.309H24.959c-2.768 0 -5.012 2.256 -5.012 5.036h41.66c0.001 -2.781 -2.244 -5.036 -5.012 -5.036" fill="#466D77"/><path d="M29.032 58.693h23.494v5.617H29.032z" fill="#466D77"/><path d="M74.556 13.943H18.166c-0.649 0 -1.175 0.528 -1.175 1.18s0.526 1.181 1.175 1.181h55.216v41.209H8.175V16.304h6.441c0.649 0 1.175 -0.529 1.175 -1.181s-0.526 -1.181 -1.175 -1.181H7c-0.648 0 -1.174 0.528 -1.174 1.181v43.57c0 0.651 0.526 1.18 1.175 1.18h20.858v3.256h-2.898c-3.411 0 -6.186 2.789 -6.186 6.217 0 0.651 0.526 1.18 1.175 1.18h41.66c0.649 0 1.174 -0.529 1.174 -1.18 0 -3.428 -2.775 -6.217 -6.187 -6.217h-2.897V59.874h20.857c0.649 0 1.174 -0.529 1.174 -1.18V15.123c0 -0.653 -0.526 -1.181 -1.174 -1.181M60.248 68.166H21.306a3.846 3.846 0 0 1 3.653 -2.675h31.637a3.843 3.843 0 0 1 3.653 2.675m-8.899 -5.036H30.207V59.874h21.144v3.255z" fill=""/><path d="M70.014 43.248c0.649 0 1.174 -0.528 1.174 -1.181V19.687c0 -0.652 -0.525 -1.181 -1.174 -1.181H11.542c-0.649 0 -1.175 0.529 -1.175 1.181v34.443c0 0.651 0.526 1.18 1.175 1.18H70.014c0.649 0 1.174 -0.529 1.174 -1.18v-8.285c0 -0.653 -0.525 -1.181 -1.174 -1.181s-1.175 0.528 -1.175 1.181v7.104H12.717V20.867H68.839v21.201c0 0.653 0.526 1.181 1.175 1.181" fill=""/><path d="M31.746 47.269c0.648 0 1.174 -0.529 1.174 -1.181V28.909h4.464c0.649 0 1.175 -0.529 1.175 -1.181s-0.526 -1.181 -1.175 -1.181H25.899c-0.649 0 -1.175 0.529 -1.175 1.181s0.526 1.181 1.175 1.181h4.672v17.18c0 0.651 0.526 1.18 1.174 1.18m12.783 -16.311 -1.346 -3.641a1.173 1.173 0 0 0 -1.51 -0.695 1.182 1.182 0 0 0 -0.692 1.517l1.346 3.64a1.175 1.175 0 0 0 1.509 0.695 1.182 1.182 0 0 0 0.693 -1.516m3.239 15.542c0.171 0.462 0.61 0.769 1.1 0.769s0.929 -0.307 1.1 -0.769l6.788 -18.361c0.226 -0.611 -0.084 -1.29 -0.692 -1.517s-1.284 0.085 -1.51 0.695l-5.686 15.382 -3.255 -8.807a1.174 1.174 0 0 0 -1.51 -0.695 1.182 1.182 0 0 0 -0.693 1.517z" fill=""/></svg>